<svg aria-hidden="true" style="position: absolute; width: 0; height: 0; overflow: hidden;" version="1.1" xmlns="http://www.w3.org/2000/svg" xmlns:xlink="http://www.w3.org/1999/xlink">
<defs>
<symbol id="eye" viewBox="0 0 22 16">
<title>eye</title>
<path d="M8.28065 8C8.28065 8.69619 8.55721 9.36387 9.0495 9.85616C9.54178 10.3484 10.2095 10.625 10.9057 10.625C11.6018 10.625 12.2695 10.3484 12.7618 9.85616C13.2541 9.36387 13.5307 8.69619 13.5307 8C13.5307 7.30381 13.2541 6.63613 12.7618 6.14384C12.2695 5.65156 11.6018 5.375 10.9057 5.375C10.2095 5.375 9.54178 5.65156 9.0495 6.14384C8.55721 6.63613 8.28065 7.30381 8.28065 8ZM21.0822 7.39531C18.8603 2.71484 15.5017 0.359375 10.9994 0.359375C6.49472 0.359375 3.13847 2.71484 0.916591 7.39766C0.82747 7.58637 0.78125 7.79247 0.78125 8.00117C0.78125 8.20987 0.82747 8.41598 0.916591 8.60469C3.13847 13.2852 6.49706 15.6406 10.9994 15.6406C15.5041 15.6406 18.8603 13.2852 21.0822 8.60234C21.2627 8.22266 21.2627 7.78203 21.0822 7.39531ZM10.9057 12.125C8.62753 12.125 6.78065 10.2781 6.78065 8C6.78065 5.72188 8.62753 3.875 10.9057 3.875C13.1838 3.875 15.0307 5.72188 15.0307 8C15.0307 10.2781 13.1838 12.125 10.9057 12.125Z"/>
</symbol>
<symbol id="eye_close" viewBox="0 0 24 24">
<title>eye-close</title>
<path d="M13.7618 13.8562C13.2695 14.3485 12.6018 14.6251 11.9057 14.6251C11.8285 14.6251 11.7526 14.6216 11.6774 14.615L14.5206 11.7718C14.5271 11.847 14.5307 11.9232 14.5307 12.0001C14.5307 12.6963 14.2541 13.3639 13.7618 13.8562Z"/>
<path fill-rule="evenodd" clip-rule="evenodd" d="M19.5932 2.88007L20.5944 3.88038C20.6118 3.8978 20.6257 3.91847 20.6351 3.94124C20.6445 3.964 20.6494 3.9884 20.6494 4.01304C20.6494 4.03768 20.6445 4.06208 20.6351 4.08484C20.6257 4.1076 20.6118 4.12828 20.5944 4.14569L3.90315 20.836C3.86799 20.8711 3.82032 20.8909 3.77061 20.8909C3.72091 20.8909 3.67323 20.8711 3.63807 20.836L2.63753 19.8355C2.60239 19.8003 2.58265 19.7526 2.58265 19.7029C2.58265 19.6532 2.60239 19.6055 2.63753 19.5704L5.11698 17.0919C3.86932 15.9666 2.80253 14.4708 1.91659 12.6048C1.82747 12.416 1.78125 12.2099 1.78125 12.0012C1.78125 11.7925 1.82747 11.5864 1.91659 11.3977C4.13378 6.70554 7.49472 4.35944 11.9994 4.35944C13.7636 4.35944 15.3525 4.72062 16.7659 5.44296L19.3281 2.88007C19.3632 2.84493 19.4109 2.8252 19.4606 2.8252C19.5103 2.8252 19.558 2.84493 19.5932 2.88007ZM8.31612 9.96723C7.96507 10.5872 7.78059 11.2876 7.78065 12.0001C7.77966 12.6777 7.9465 13.3451 8.26628 13.9426L9.40581 12.803C9.25866 12.3435 9.24094 11.8523 9.35459 11.3833C9.46824 10.9143 9.70887 10.4857 10.0501 10.1445C10.3913 9.80329 10.8199 9.56265 11.2889 9.449C11.7578 9.33535 12.2491 9.35307 12.7086 9.50022L13.8482 8.36069C13.2196 8.02518 12.5149 7.85818 11.8026 7.87598C11.0904 7.89378 10.3948 8.09576 9.78384 8.46225C9.17284 8.82873 8.66718 9.34723 8.31612 9.96723Z"/>
<path d="M19.1365 7.14502C20.2754 8.24111 21.2573 9.65791 22.0823 11.3954C22.1715 11.5841 22.2177 11.7902 22.2177 11.9989C22.2177 12.2076 22.1715 12.4137 22.0823 12.6024C19.8651 17.2946 16.5042 19.6407 11.9995 19.6407C10.3717 19.6407 8.8931 19.3331 7.56372 18.718L10.4292 15.8525C11.1736 16.1373 11.9845 16.2004 12.7641 16.0343C13.5436 15.8681 14.2583 15.4798 14.8219 14.9162C15.3854 14.3526 15.7738 13.6379 15.9399 12.8584C16.1061 12.0789 16.0429 11.2679 15.7582 10.5235L19.1365 7.14502Z"/>
</symbol>
</defs>
</svg>
